# ProBuilder 5.2.3
# https://unity3d.com/unity/features/worldbuilding/probuilder
# 12.03.2025 0:08:18

mtllib ./Arch.mtl
o Arch

g Plane
v 8 0 -8
v 8 0 0
v 0 0 -8
v 0 0 0
v 8 0 8
v 0 0 8
v -8 0 -8
v -8 0 0
v -8 0 8

vt -8 -8
vt -8 0
vt 0 -8
vt 0 0
vt -8 8
vt 0 8
vt 8 -8
vt 8 0
vt 8 8

vn 0 1 0

usemtl ProBuilderDefault
f 3/3/1 4/4/1 2/2/1 1/1/1
f 4/4/1 6/6/1 5/5/1 2/2/1
f 7/7/1 8/8/1 4/4/1 3/3/1
f 8/8/1 9/9/1 6/6/1 4/4/1

g Arch
v -4.5 4.768372E-07 8
v -4.4 4.768372E-07 8
v -4.5 4.768372E-07 -8
v -4.4 4.768372E-07 -8
v -3.640576 3.582673 -8
v -3.640576 3.582673 8
v -3.559675 3.52087 -8
v -3.559675 3.52087 8
v -1.390576 5.796887 -8
v -1.390576 5.796887 8
v -1.359674 5.696887 -8
v -1.359674 5.696887 8
v 1.390576 5.796887 -8
v 1.390576 5.796887 8
v 1.359674 5.696887 -8
v 1.359674 5.696887 8
v 3.640577 3.582673 -8
v 3.640577 3.582673 8
v 3.559675 3.520869 -8
v 3.559675 3.520869 8
v 4.5 0 -8
v 4.5 0 8
v 4.4 0 -8
v 4.4 0 8

vt -9 16
vt -8.9 16
vt -9 0
vt -8.9 0
vt 0 -2.099391
vt 0 1.584921
vt 16 -2.099391
vt 16 1.584921
vt 0 1.553633
vt 0 -2.066127
vt -16 1.553633
vt -16 -2.066127
vt 3.28927 0
vt 0.1324924 0
vt 3.28927 16
vt 0.1324924 16
vt -0.159892 0
vt -3.254251 0
vt -0.159892 16
vt -3.254251 16
vt 5.890576 0
vt 3.109424 0
vt 5.890576 16
vt 3.109424 16
vt -3.140326 0
vt -5.859674 0
vt -3.140326 16
vt -5.859674 16
vt 6.282277 0
vt 3.125499 0
vt 6.282277 16
vt 3.125499 16
vt -3.144493 0
vt -6.238852 0
vt -3.144493 16
vt -6.238852 16
vt 0 3.684312
vt 0 0
vt -16 3.684312
vt -16 0
vt 0 0.02321491
vt 0 3.642975
vt 16 0.02321491
vt 16 3.642975
vt -0.0999999 16
vt 0 16
vt -0.0999999 0
vt -8.140576 3.582673
vt -8.059675 3.52087
vt 8.140576 3.582673
vt 9 4.768372E-07
vt 8.059675 3.52087
vt 8.9 4.768372E-07
vt -5.890576 5.796887
vt -5.859674 5.696887
vt 5.890576 5.796887
vt 5.859674 5.696887
vt -3.109424 5.796887
vt -3.140326 5.696887
vt 3.109424 5.796887
vt 3.140326 5.696887
vt -0.8594232 3.582673
vt -0.9403248 3.520869
vt 0.8594232 3.582673
vt 0.9403248 3.520869
vt 0.0999999 0

vn 0 -1 0
vn -0.972413 0.2332657 0
vn -0.870576 0.4920339 0
vn 0.8714808 -0.4904297 0
vn 0.9726802 -0.2321492 0
vn -0.3789774 0.9254059 0
vn 0.3801503 -0.9249247 0
vn 0.3789774 0.9254059 0
vn -0.3801503 -0.9249247 0
vn 0.8705761 0.4920338 0
vn -0.7032209 -0.7109715 0
vn 0.9724131 0.2332656 0
vn -0.9726802 -0.2321493 0
vn 0 0 1
vn 0 0 -1

usemtl ProBuilderDefault
f 12/12/2 13/13/2 11/11/2 10/10/2
f 10/16/3 15/17/4 14/15/4 12/14/3
f 17/20/5 11/21/6 13/19/6 16/18/5
f 15/24/4 19/25/7 18/23/7 14/22/4
f 21/28/8 17/29/5 16/27/5 20/26/8
f 19/32/7 23/33/9 22/31/9 18/30/7
f 25/36/10 21/37/8 20/35/8 24/34/10
f 23/40/9 27/41/11 26/39/11 22/38/9
f 29/44/12 25/45/10 24/43/10 28/42/12
f 27/48/11 31/49/13 30/47/13 26/46/11
f 33/52/14 29/53/14 28/51/14 32/50/14
f 32/56/2 30/47/2 31/55/2 33/54/2
f 11/13/15 17/58/15 15/57/15 10/12/15
f 16/61/16 13/62/16 12/60/16 14/59/16
f 17/58/15 21/64/15 19/63/15 15/57/15
f 20/66/16 16/61/16 14/59/16 18/65/16
f 21/64/15 25/68/15 23/67/15 19/63/15
f 24/70/16 20/66/16 18/65/16 22/69/16
f 25/68/15 29/72/15 27/71/15 23/67/15
f 28/74/16 24/70/16 22/69/16 26/73/16
f 29/72/15 33/56/15 31/47/15 27/71/15
f 32/75/16 28/74/16 26/73/16 30/47/16

g Plane
v 8 0 -8
v 8 0 0
v 0 0 -8
v 0 0 0
v 8 0 8
v 0 0 8
v -8 0 -8
v -8 0 0
v -8 0 8

vt -8 -8
vt -8 0
vt 0 -8
vt 0 0
vt -8 8
vt 0 8
vt 8 -8
vt 8 0
vt 8 8

vn 0 1 0

usemtl ProBuilderDefault
f 36/78/17 37/79/17 35/77/17 34/76/17
f 37/79/17 39/81/17 38/80/17 35/77/17
f 40/82/17 41/83/17 37/79/17 36/78/17
f 41/83/17 42/84/17 39/81/17 37/79/17

g Arch
v -4.5 4.768372E-07 8
v -4.4 4.768372E-07 8
v -4.5 4.768372E-07 -8
v -4.4 4.768372E-07 -8
v -3.640576 3.582673 -8
v -3.640576 3.582673 8
v -3.559675 3.52087 -8
v -3.559675 3.52087 8
v -1.390576 5.796887 -8
v -1.390576 5.796887 8
v -1.359674 5.696887 -8
v -1.359674 5.696887 8
v 1.390576 5.796887 -8
v 1.390576 5.796887 8
v 1.359674 5.696887 -8
v 1.359674 5.696887 8
v 3.640577 3.582673 -8
v 3.640577 3.582673 8
v 3.559675 3.520869 -8
v 3.559675 3.520869 8
v 4.5 0 -8
v 4.5 0 8
v 4.4 0 -8
v 4.4 0 8

vt -9 16
vt -8.9 16
vt -9 0
vt -8.9 0
vt 0 -2.099391
vt 0 1.584921
vt 16 -2.099391
vt 16 1.584921
vt 0 1.553633
vt 0 -2.066127
vt -16 1.553633
vt -16 -2.066127
vt 3.28927 0
vt 0.1324924 0
vt 3.28927 16
vt 0.1324924 16
vt -0.159892 0
vt -3.254251 0
vt -0.159892 16
vt -3.254251 16
vt 5.890576 0
vt 3.109424 0
vt 5.890576 16
vt 3.109424 16
vt -3.140326 0
vt -5.859674 0
vt -3.140326 16
vt -5.859674 16
vt 6.282277 0
vt 3.125499 0
vt 6.282277 16
vt 3.125499 16
vt -3.144493 0
vt -6.238852 0
vt -3.144493 16
vt -6.238852 16
vt 0 3.684312
vt 0 0
vt -16 3.684312
vt -16 0
vt 0 0.02321491
vt 0 3.642975
vt 16 0.02321491
vt 16 3.642975
vt -0.0999999 16
vt 0 16
vt -0.0999999 0
vt -8.140576 3.582673
vt -8.059675 3.52087
vt 8.140576 3.582673
vt 9 4.768372E-07
vt 8.059675 3.52087
vt 8.9 4.768372E-07
vt -5.890576 5.796887
vt -5.859674 5.696887
vt 5.890576 5.796887
vt 5.859674 5.696887
vt -3.109424 5.796887
vt -3.140326 5.696887
vt 3.109424 5.796887
vt 3.140326 5.696887
vt -0.8594232 3.582673
vt -0.9403248 3.520869
vt 0.8594232 3.582673
vt 0.9403248 3.520869
vt 0.0999999 0

vn 0 -1 0
vn -0.972413 0.2332657 0
vn -0.870576 0.4920339 0
vn 0.8714808 -0.4904297 0
vn 0.9726802 -0.2321492 0
vn -0.3789774 0.9254059 0
vn 0.3801503 -0.9249247 0
vn 0.3789774 0.9254059 0
vn -0.3801503 -0.9249247 0
vn 0.8705761 0.4920338 0
vn -0.7032209 -0.7109715 0
vn 0.9724131 0.2332656 0
vn -0.9726802 -0.2321493 0
vn 0 0 1
vn 0 0 -1

usemtl ProBuilderDefault
f 45/87/18 46/88/18 44/86/18 43/85/18
f 43/91/19 48/92/20 47/90/20 45/89/19
f 50/95/21 44/96/22 46/94/22 49/93/21
f 48/99/20 52/100/23 51/98/23 47/97/20
f 54/103/24 50/104/21 49/102/21 53/101/24
f 52/107/23 56/108/25 55/106/25 51/105/23
f 58/111/26 54/112/24 53/110/24 57/109/26
f 56/115/25 60/116/27 59/114/27 55/113/25
f 62/119/28 58/120/26 57/118/26 61/117/28
f 60/123/27 64/124/29 63/122/29 59/121/27
f 66/127/30 62/128/30 61/126/30 65/125/30
f 65/131/18 63/122/18 64/130/18 66/129/18
f 44/88/31 50/133/31 48/132/31 43/87/31
f 49/136/32 46/137/32 45/135/32 47/134/32
f 50/133/31 54/139/31 52/138/31 48/132/31
f 53/141/32 49/136/32 47/134/32 51/140/32
f 54/139/31 58/143/31 56/142/31 52/138/31
f 57/145/32 53/141/32 51/140/32 55/144/32
f 58/143/31 62/147/31 60/146/31 56/142/31
f 61/149/32 57/145/32 55/144/32 59/148/32
f 62/147/31 66/131/31 64/122/31 60/146/31
f 65/150/32 61/149/32 59/148/32 63/122/32

